<svg xmlns="http://www.w3.org/2000/svg" viewBox="0 0 1200 110" preserveAspectRatio="xMidYMid meet" width="100%" height="auto" fill="none" stroke="#777" stroke-linecap="round" stroke-linejoin="round">

  <!-- ═══════════════════════════════════════════════════════════
       MAIN VINE — organic, non-repeating path, no symmetry
       vine y ranges from ~38 to ~78 across the 1200-unit width
       ═══════════════════════════════════════════════════════════ -->
  <path d="M0,58 C22,44 46,70 82,54 C106,42 122,46 150,66 C170,80 192,76 222,60
           C245,46 265,42 295,58 C318,70 338,76 368,60 C392,46 412,42 442,62
           C462,76 486,80 518,64 C540,50 562,42 596,56 C618,68 640,72 670,56
           C692,42 716,36 748,54 C772,66 796,74 828,58 C852,44 874,38 908,56
           C930,70 954,76 984,60 C1006,46 1030,40 1062,56
           C1084,68 1108,72 1136,58 C1158,46 1180,48 1200,60" stroke-width="0.88"/>

  <!-- ═══════════════════════════════════════════════════════════
       BRANCH STEMS — connect vine to flowers and leaf clusters
       ═══════════════════════════════════════════════════════════ -->
  <!-- Branch to cherry blossom 1 above at (82,54) → (80,34) -->
  <path d="M82,54 C80,46 81,40 80,34" stroke-width="0.7"/>
  <!-- Branch to Rose 1 above at (222,60) → (222,42) -->
  <path d="M222,60 C224,52 222,48 222,42" stroke-width="0.7"/>
  <!-- Branch to cherry blossom 2 below at (442,62) → (446,82) -->
  <path d="M442,62 C444,70 445,76 446,82" stroke-width="0.7"/>
  <!-- Branch to Rose 2 below at (670,56) → (672,76) -->
  <path d="M670,56 C672,62 673,70 672,76" stroke-width="0.7"/>
  <!-- Branch to cherry blossom 3 above at (748,54) → (746,34) -->
  <path d="M748,54 C746,46 747,40 746,34" stroke-width="0.7"/>
  <!-- Branch to cherry blossom 4 below at (984,60) → (986,80) -->
  <path d="M984,60 C986,68 986,74 986,80" stroke-width="0.7"/>
  <!-- Branch to Rose 3 above at (1062,56) → (1060,36) -->
  <path d="M1062,56 C1060,48 1061,42 1060,36" stroke-width="0.7"/>
  <!-- Small branch to bud at (295,58) -->
  <path d="M295,58 C298,52 300,46 302,41" stroke-width="0.6"/>
  <!-- Small branch to bud at (828,58) -->
  <path d="M828,58 C832,52 834,46 836,41" stroke-width="0.6"/>
  <!-- Small branch to bud at (1136,58) -->
  <path d="M1136,58 C1140,52 1142,48 1143,43" stroke-width="0.6"/>

  <!-- ═══════════════════════════════════════════════════════════
       VINE TENDRILS — fine spiral curls at organic intervals
       ═══════════════════════════════════════════════════════════ -->
  <!-- Tendril near x=150 (vine at y≈66) -->
  <path d="M152,64 C157,56 165,52 168,57 C170,62 166,68 160,65 C156,62 157,57 161,56" stroke-width="0.44"/>
  <!-- Tendril near x=518 (vine at y≈64) -->
  <path d="M520,62 C525,54 533,50 536,55 C538,60 534,66 528,63 C524,60 525,55 529,54" stroke-width="0.44"/>
  <!-- Tendril near x=908 (vine at y≈56) -->
  <path d="M910,54 C915,46 923,42 926,47 C928,52 924,58 918,55 C914,52 915,47 919,46" stroke-width="0.44"/>
  <!-- Small side curl at vine point x=596 -->
  <path d="M598,54 C603,62 608,64 607,60 C605,55 600,55 599,59" stroke-width="0.4"/>

  <!-- ═══════════════════════════════════════════════════════════
       CHERRY BLOSSOM 1 — above vine, x≈80, centred at (80,34)
       ═══════════════════════════════════════════════════════════ -->
  <g transform="translate(80,34)">
    <ellipse cy="-10" rx="5" ry="7.5" stroke-width="0.72"/>
    <ellipse cy="-10" rx="5" ry="7.5" stroke-width="0.72" transform="rotate(72)"/>
    <ellipse cy="-10" rx="5" ry="7.5" stroke-width="0.72" transform="rotate(144)"/>
    <ellipse cy="-10" rx="5" ry="7.5" stroke-width="0.72" transform="rotate(216)"/>
    <ellipse cy="-10" rx="5" ry="7.5" stroke-width="0.72" transform="rotate(288)"/>
    <!-- Stamens -->
    <line x1="0" y1="0" x2="0" y2="-14" stroke-width="0.35"/>
    <line x1="0" y1="0" x2="5.2" y2="-12.8" stroke-width="0.35"/>
    <line x1="0" y1="0" x2="9" y2="-8" stroke-width="0.35"/>
    <line x1="0" y1="0" x2="-5.2" y2="-12.8" stroke-width="0.35"/>
    <line x1="0" y1="0" x2="-9" y2="-8" stroke-width="0.35"/>
    <circle r="0.9" cy="-14" fill="#777" stroke="none"/>
    <circle r="0.9" cx="5.2" cy="-12.8" fill="#777" stroke="none"/>
    <circle r="0.9" cx="9" cy="-8" fill="#777" stroke="none"/>
    <circle r="0.9" cx="-5.2" cy="-12.8" fill="#777" stroke="none"/>
    <circle r="0.9" cx="-9" cy="-8" fill="#777" stroke="none"/>
    <circle r="2.5" stroke-width="0.65"/>
    <circle r="1" fill="#777" stroke="none"/>
  </g>

  <!-- ═══════════════════════════════════════════════════════════
       ROSE 1 — above vine, centred at (222, 42)
       ═══════════════════════════════════════════════════════════ -->
  <!-- Leaves on rose stem -->
  <g transform="translate(218,52) rotate(-28)">
    <path d="M0,0 C4,-3 7,-9 5,-15 C3,-19 -3,-19 -5,-15 C-7,-9 -4,-3 0,0" stroke-width="0.62"/>
    <line x1="0" y1="-1" x2="0" y2="-13" stroke-width="0.3"/>
    <path d="M0,-5 Q3,-9 5,-12" stroke-width="0.26"/>
    <path d="M0,-5 Q-3,-9 -5,-12" stroke-width="0.26"/>
  </g>
  <g transform="translate(226,52) rotate(25)">
    <path d="M0,0 C3,-2 5,-7 4,-12 C2,-15 -2,-15 -4,-12 C-5,-7 -3,-2 0,0" stroke-width="0.58"/>
  </g>
  <g transform="translate(222,42)">
    <!-- 5 outer petals -->
    <ellipse cy="-13" rx="5.5" ry="8.5" stroke-width="0.74"/>
    <ellipse cy="-13" rx="5.5" ry="8.5" stroke-width="0.74" transform="rotate(72)"/>
    <ellipse cy="-13" rx="5.5" ry="8.5" stroke-width="0.74" transform="rotate(144)"/>
    <ellipse cy="-13" rx="5.5" ry="8.5" stroke-width="0.74" transform="rotate(216)"/>
    <ellipse cy="-13" rx="5.5" ry="8.5" stroke-width="0.74" transform="rotate(288)"/>
    <!-- 5 inner petals offset 36° -->
    <ellipse cy="-9" rx="3.5" ry="5.5" stroke-width="0.62" transform="rotate(36)"/>
    <ellipse cy="-9" rx="3.5" ry="5.5" stroke-width="0.62" transform="rotate(108)"/>
    <ellipse cy="-9" rx="3.5" ry="5.5" stroke-width="0.62" transform="rotate(180)"/>
    <ellipse cy="-9" rx="3.5" ry="5.5" stroke-width="0.62" transform="rotate(252)"/>
    <ellipse cy="-9" rx="3.5" ry="5.5" stroke-width="0.62" transform="rotate(324)"/>
    <circle r="3.8" stroke-width="0.7"/>
    <circle r="1.6" fill="#777" stroke="none"/>
  </g>

  <!-- ═══════════════════════════════════════════════════════════
       SMALL ROSEBUD 1 — at branch tip (302,41)
       ═══════════════════════════════════════════════════════════ -->
  <g transform="translate(302,41)">
    <path d="M0,-2 Q-3,-7 0,-12 Q3,-7 0,-2" stroke-width="0.68"/>
    <path d="M0,-5 Q-5,-8 0,-15 Q5,-8 0,-5" stroke-width="0.58"/>
    <line x1="0" y1="0" x2="0" y2="-2" stroke-width="0.68"/>
  </g>

  <!-- ═══════════════════════════════════════════════════════════
       CHERRY BLOSSOM 2 — below vine, centred at (446, 82)
       ═══════════════════════════════════════════════════════════ -->
  <!-- Leaf on blossom stem -->
  <g transform="translate(440,72) rotate(-20)">
    <path d="M0,0 C4,-3 6,-8 4,-13 C3,-16 -3,-16 -4,-13 C-6,-8 -4,-3 0,0" stroke-width="0.58"/>
    <line x1="0" y1="-1" x2="0" y2="-12" stroke-width="0.28"/>
  </g>
  <g transform="translate(446,82)">
    <ellipse cy="-10" rx="5" ry="7.5" stroke-width="0.72"/>
    <ellipse cy="-10" rx="5" ry="7.5" stroke-width="0.72" transform="rotate(72)"/>
    <ellipse cy="-10" rx="5" ry="7.5" stroke-width="0.72" transform="rotate(144)"/>
    <ellipse cy="-10" rx="5" ry="7.5" stroke-width="0.72" transform="rotate(216)"/>
    <ellipse cy="-10" rx="5" ry="7.5" stroke-width="0.72" transform="rotate(288)"/>
    <line x1="0" y1="0" x2="0" y2="-14" stroke-width="0.35"/>
    <line x1="0" y1="0" x2="5.2" y2="-12.8" stroke-width="0.35"/>
    <line x1="0" y1="0" x2="-5.2" y2="-12.8" stroke-width="0.35"/>
    <line x1="0" y1="0" x2="9" y2="-8" stroke-width="0.35"/>
    <line x1="0" y1="0" x2="-9" y2="-8" stroke-width="0.35"/>
    <circle r="0.9" cy="-14" fill="#777" stroke="none"/>
    <circle r="0.9" cx="5.2" cy="-12.8" fill="#777" stroke="none"/>
    <circle r="0.9" cx="-5.2" cy="-12.8" fill="#777" stroke="none"/>
    <circle r="0.9" cx="9" cy="-8" fill="#777" stroke="none"/>
    <circle r="0.9" cx="-9" cy="-8" fill="#777" stroke="none"/>
    <circle r="2.5" stroke-width="0.65"/>
    <circle r="1" fill="#777" stroke="none"/>
  </g>

  <!-- ═══════════════════════════════════════════════════════════
       ROSE 2 — below vine, centred at (672, 76)
       ═══════════════════════════════════════════════════════════ -->
  <g transform="translate(666,65) rotate(22)">
    <path d="M0,0 C3,2 5,7 4,12 C2,15 -2,15 -4,12 C-5,7 -3,2 0,0" stroke-width="0.6"/>
    <line x1="0" y1="1" x2="0" y2="11" stroke-width="0.28"/>
    <path d="M0,5 Q3,8 5,10" stroke-width="0.24"/>
    <path d="M0,5 Q-3,8 -5,10" stroke-width="0.24"/>
  </g>
  <g transform="translate(676,66) rotate(-18)">
    <path d="M0,0 C4,3 6,8 4,13 C3,16 -3,16 -4,13 C-6,8 -4,3 0,0" stroke-width="0.62"/>
    <line x1="0" y1="1" x2="0" y2="12" stroke-width="0.28"/>
  </g>
  <g transform="translate(672,76)">
    <ellipse cy="-13" rx="5.5" ry="8.5" stroke-width="0.74"/>
    <ellipse cy="-13" rx="5.5" ry="8.5" stroke-width="0.74" transform="rotate(72)"/>
    <ellipse cy="-13" rx="5.5" ry="8.5" stroke-width="0.74" transform="rotate(144)"/>
    <ellipse cy="-13" rx="5.5" ry="8.5" stroke-width="0.74" transform="rotate(216)"/>
    <ellipse cy="-13" rx="5.5" ry="8.5" stroke-width="0.74" transform="rotate(288)"/>
    <ellipse cy="-9" rx="3.5" ry="5.5" stroke-width="0.62" transform="rotate(36)"/>
    <ellipse cy="-9" rx="3.5" ry="5.5" stroke-width="0.62" transform="rotate(108)"/>
    <ellipse cy="-9" rx="3.5" ry="5.5" stroke-width="0.62" transform="rotate(180)"/>
    <ellipse cy="-9" rx="3.5" ry="5.5" stroke-width="0.62" transform="rotate(252)"/>
    <ellipse cy="-9" rx="3.5" ry="5.5" stroke-width="0.62" transform="rotate(324)"/>
    <circle r="3.8" stroke-width="0.7"/>
    <circle r="1.6" fill="#777" stroke="none"/>
  </g>

  <!-- ═══════════════════════════════════════════════════════════
       CHERRY BLOSSOM 3 — above vine, centred at (746, 34)
       ═══════════════════════════════════════════════════════════ -->
  <g transform="translate(742,44) rotate(-15)">
    <path d="M0,0 C4,-3 6,-8 4,-13 C3,-16 -3,-16 -4,-13 C-6,-8 -4,-3 0,0" stroke-width="0.58"/>
  </g>
  <g transform="translate(746,34)">
    <ellipse cy="-10" rx="4.8" ry="7.2" stroke-width="0.72"/>
    <ellipse cy="-10" rx="4.8" ry="7.2" stroke-width="0.72" transform="rotate(72)"/>
    <ellipse cy="-10" rx="4.8" ry="7.2" stroke-width="0.72" transform="rotate(144)"/>
    <ellipse cy="-10" rx="4.8" ry="7.2" stroke-width="0.72" transform="rotate(216)"/>
    <ellipse cy="-10" rx="4.8" ry="7.2" stroke-width="0.72" transform="rotate(288)"/>
    <line x1="0" y1="0" x2="0" y2="-14" stroke-width="0.35"/>
    <line x1="0" y1="0" x2="5" y2="-12.5" stroke-width="0.35"/>
    <line x1="0" y1="0" x2="8.6" y2="-7.5" stroke-width="0.35"/>
    <line x1="0" y1="0" x2="-5" y2="-12.5" stroke-width="0.35"/>
    <line x1="0" y1="0" x2="-8.6" y2="-7.5" stroke-width="0.35"/>
    <circle r="0.85" cy="-14" fill="#777" stroke="none"/>
    <circle r="0.85" cx="5" cy="-12.5" fill="#777" stroke="none"/>
    <circle r="0.85" cx="8.6" cy="-7.5" fill="#777" stroke="none"/>
    <circle r="0.85" cx="-5" cy="-12.5" fill="#777" stroke="none"/>
    <circle r="0.85" cx="-8.6" cy="-7.5" fill="#777" stroke="none"/>
    <circle r="2.5" stroke-width="0.65"/>
    <circle r="1" fill="#777" stroke="none"/>
  </g>

  <!-- ═══════════════════════════════════════════════════════════
       CHERRY BLOSSOM 4 — below vine, centred at (986, 80)
       ═══════════════════════════════════════════════════════════ -->
  <g transform="translate(980,70) rotate(18)">
    <path d="M0,0 C3,2 5,7 4,12 C2,15 -2,15 -4,12 C-5,7 -3,2 0,0" stroke-width="0.58"/>
  </g>
  <g transform="translate(986,80)">
    <ellipse cy="-10" rx="5" ry="7.5" stroke-width="0.72"/>
    <ellipse cy="-10" rx="5" ry="7.5" stroke-width="0.72" transform="rotate(72)"/>
    <ellipse cy="-10" rx="5" ry="7.5" stroke-width="0.72" transform="rotate(144)"/>
    <ellipse cy="-10" rx="5" ry="7.5" stroke-width="0.72" transform="rotate(216)"/>
    <ellipse cy="-10" rx="5" ry="7.5" stroke-width="0.72" transform="rotate(288)"/>
    <line x1="0" y1="0" x2="0" y2="-14" stroke-width="0.35"/>
    <line x1="0" y1="0" x2="5.2" y2="-12.8" stroke-width="0.35"/>
    <line x1="0" y1="0" x2="-5.2" y2="-12.8" stroke-width="0.35"/>
    <line x1="0" y1="0" x2="9" y2="-8" stroke-width="0.35"/>
    <line x1="0" y1="0" x2="-9" y2="-8" stroke-width="0.35"/>
    <circle r="0.9" cy="-14" fill="#777" stroke="none"/>
    <circle r="0.9" cx="5.2" cy="-12.8" fill="#777" stroke="none"/>
    <circle r="0.9" cx="-5.2" cy="-12.8" fill="#777" stroke="none"/>
    <circle r="0.9" cx="9" cy="-8" fill="#777" stroke="none"/>
    <circle r="0.9" cx="-9" cy="-8" fill="#777" stroke="none"/>
    <circle r="2.5" stroke-width="0.65"/>
    <circle r="1" fill="#777" stroke="none"/>
  </g>

  <!-- ═══════════════════════════════════════════════════════════
       ROSE 3 — above vine, centred at (1060, 36)
       ═══════════════════════════════════════════════════════════ -->
  <g transform="translate(1055,48) rotate(-25)">
    <path d="M0,0 C4,-3 7,-9 5,-15 C3,-19 -3,-19 -5,-15 C-7,-9 -4,-3 0,0" stroke-width="0.62"/>
    <line x1="0" y1="-1" x2="0" y2="-13" stroke-width="0.3"/>
    <path d="M0,-5 Q3,-9 5,-12" stroke-width="0.26"/>
    <path d="M0,-5 Q-3,-9 -5,-12" stroke-width="0.26"/>
  </g>
  <g transform="translate(1065,48) rotate(22)">
    <path d="M0,0 C3,-2 5,-7 4,-12 C2,-15 -2,-15 -4,-12 C-5,-7 -3,-2 0,0" stroke-width="0.58"/>
  </g>
  <g transform="translate(1060,36)">
    <ellipse cy="-13" rx="5.5" ry="8.5" stroke-width="0.74"/>
    <ellipse cy="-13" rx="5.5" ry="8.5" stroke-width="0.74" transform="rotate(72)"/>
    <ellipse cy="-13" rx="5.5" ry="8.5" stroke-width="0.74" transform="rotate(144)"/>
    <ellipse cy="-13" rx="5.5" ry="8.5" stroke-width="0.74" transform="rotate(216)"/>
    <ellipse cy="-13" rx="5.5" ry="8.5" stroke-width="0.74" transform="rotate(288)"/>
    <ellipse cy="-9" rx="3.5" ry="5.5" stroke-width="0.62" transform="rotate(36)"/>
    <ellipse cy="-9" rx="3.5" ry="5.5" stroke-width="0.62" transform="rotate(108)"/>
    <ellipse cy="-9" rx="3.5" ry="5.5" stroke-width="0.62" transform="rotate(180)"/>
    <ellipse cy="-9" rx="3.5" ry="5.5" stroke-width="0.62" transform="rotate(252)"/>
    <ellipse cy="-9" rx="3.5" ry="5.5" stroke-width="0.62" transform="rotate(324)"/>
    <circle r="3.8" stroke-width="0.7"/>
    <circle r="1.6" fill="#777" stroke="none"/>
  </g>

  <!-- ═══════════════════════════════════════════════════════════
       SMALL ROSEBUDS on secondary stems
       ═══════════════════════════════════════════════════════════ -->
  <g transform="translate(836,41)">
    <path d="M0,-2 Q-3,-7 0,-12 Q3,-7 0,-2" stroke-width="0.68"/>
    <path d="M0,-5 Q-5,-9 0,-15 Q5,-9 0,-5" stroke-width="0.58"/>
    <line x1="0" y1="0" x2="0" y2="-2" stroke-width="0.7"/>
  </g>
  <g transform="translate(1143,43)">
    <path d="M0,-2 Q-3,-6 0,-11 Q3,-6 0,-2" stroke-width="0.65"/>
    <path d="M0,-4 Q-4,-8 0,-13 Q4,-8 0,-4" stroke-width="0.55"/>
    <line x1="0" y1="0" x2="0" y2="-2" stroke-width="0.68"/>
  </g>

  <!-- ═══════════════════════════════════════════════════════════
       LEAVES — all grounded at computed vine y, varying sizes
       Above-vine leaves: path grows in −y direction
       Below-vine leaves: path grows in +y direction
       ═══════════════════════════════════════════════════════════ -->

  <!-- Left section (x 0–400) -->

  <!-- x=40 above, vine y≈52 -->
  <g transform="translate(40,52) rotate(-32)">
    <path d="M0,0 C4,-3 7,-9 5,-15 C3,-19 -3,-19 -5,-15 C-7,-9 -4,-3 0,0" stroke-width="0.62"/>
    <line x1="0" y1="-1" x2="0" y2="-13" stroke-width="0.3"/>
    <path d="M0,-5 Q3,-8 5,-11" stroke-width="0.25"/>
    <path d="M0,-5 Q-3,-8 -5,-11" stroke-width="0.25"/>
  </g>
  <!-- x=62 below, vine y≈52 -->
  <g transform="translate(62,52) rotate(22)">
    <path d="M0,0 C3,2 5,7 4,12 C2,15 -2,15 -4,12 C-5,7 -3,2 0,0" stroke-width="0.6"/>
    <line x1="0" y1="1" x2="0" y2="11" stroke-width="0.28"/>
  </g>
  <!-- x=110 above, vine y≈58 -->
  <g transform="translate(110,58) rotate(-18)">
    <path d="M0,0 C5,-3 9,-11 6,-19 C4,-24 -4,-24 -6,-19 C-9,-11 -5,-3 0,0" stroke-width="0.65"/>
    <line x1="0" y1="-1" x2="0" y2="-17" stroke-width="0.32"/>
    <path d="M0,-6 Q4,-11 6,-14" stroke-width="0.26"/>
    <path d="M0,-6 Q-4,-11 -6,-14" stroke-width="0.26"/>
    <path d="M0,-12 Q3,-14 4,-17" stroke-width="0.24"/>
    <path d="M0,-12 Q-3,-14 -4,-17" stroke-width="0.24"/>
  </g>
  <!-- x=148 below, vine y≈66 -->
  <g transform="translate(148,66) rotate(20)">
    <path d="M0,0 C3,2 5,7 4,12 C2,15 -2,15 -4,12 C-5,7 -3,2 0,0" stroke-width="0.58"/>
  </g>
  <!-- x=180 above, vine y≈72 -->
  <g transform="translate(180,72) rotate(-30)">
    <path d="M0,0 C4,-3 7,-9 5,-15 C3,-19 -3,-19 -5,-15 C-7,-9 -4,-3 0,0" stroke-width="0.62"/>
    <line x1="0" y1="-1" x2="0" y2="-13" stroke-width="0.28"/>
    <path d="M0,-5 Q3,-9 5,-12" stroke-width="0.24"/>
    <path d="M0,-5 Q-3,-9 -5,-12" stroke-width="0.24"/>
  </g>
  <!-- x=198 above, vine y≈68 -->
  <g transform="translate(198,68) rotate(-14)">
    <path d="M0,0 C3,-2 5,-7 4,-12 C2,-15 -2,-15 -4,-12 C-5,-7 -3,-2 0,0" stroke-width="0.58"/>
  </g>
  <!-- x=258 above, vine y≈52 (large leaf near Rose 1) -->
  <g transform="translate(258,52) rotate(-20)">
    <path d="M0,0 C5,-3 9,-11 6,-19 C4,-24 -4,-24 -6,-19 C-9,-11 -5,-3 0,0" stroke-width="0.65"/>
    <line x1="0" y1="-1" x2="0" y2="-17" stroke-width="0.32"/>
    <path d="M0,-6 Q4,-11 6,-14" stroke-width="0.26"/>
    <path d="M0,-6 Q-4,-11 -6,-14" stroke-width="0.26"/>
    <path d="M0,-12 Q3,-14 4,-16" stroke-width="0.22"/>
    <path d="M0,-12 Q-3,-14 -4,-16" stroke-width="0.22"/>
  </g>
  <!-- x=272 below, vine y≈50 -->
  <g transform="translate(272,50) rotate(18)">
    <path d="M0,0 C4,3 6,8 4,13 C3,16 -3,16 -4,13 C-6,8 -4,3 0,0" stroke-width="0.6"/>
    <line x1="0" y1="1" x2="0" y2="12" stroke-width="0.28"/>
    <path d="M0,5 Q3,8 4,11" stroke-width="0.24"/>
    <path d="M0,5 Q-3,8 -4,11" stroke-width="0.24"/>
  </g>
  <!-- x=340 below, vine y≈72 -->
  <g transform="translate(340,72) rotate(22)">
    <path d="M0,0 C3,2 5,7 4,12 C2,15 -2,15 -4,12 C-5,7 -3,2 0,0" stroke-width="0.58"/>
  </g>
  <!-- x=358 above, vine y≈64 -->
  <g transform="translate(358,64) rotate(-25)">
    <path d="M0,0 C4,-3 7,-9 5,-15 C3,-19 -3,-19 -5,-15 C-7,-9 -4,-3 0,0" stroke-width="0.62"/>
    <line x1="0" y1="-1" x2="0" y2="-13" stroke-width="0.28"/>
  </g>
  <!-- x=385 above, vine y≈56 -->
  <g transform="translate(385,56) rotate(-12)">
    <path d="M0,0 C3,-2 5,-7 4,-12 C2,-15 -2,-15 -4,-12 C-5,-7 -3,-2 0,0" stroke-width="0.58"/>
  </g>

  <!-- Middle section (x 400–800) -->

  <!-- x=412 above, vine y≈46 -->
  <g transform="translate(412,46) rotate(-22)">
    <path d="M0,0 C5,-3 9,-11 6,-19 C4,-24 -4,-24 -6,-19 C-9,-11 -5,-3 0,0" stroke-width="0.65"/>
    <line x1="0" y1="-1" x2="0" y2="-17" stroke-width="0.32"/>
    <path d="M0,-6 Q4,-11 6,-14" stroke-width="0.26"/>
    <path d="M0,-6 Q-4,-11 -6,-14" stroke-width="0.26"/>
  </g>
  <!-- x=490 below, vine y≈76 -->
  <g transform="translate(490,76) rotate(18)">
    <path d="M0,0 C3,2 5,7 4,12 C2,15 -2,15 -4,12 C-5,7 -3,2 0,0" stroke-width="0.58"/>
  </g>
  <!-- x=506 below, vine y≈78 -->
  <g transform="translate(506,78) rotate(28)">
    <path d="M0,0 C4,3 6,8 4,13 C3,16 -3,16 -4,13 C-6,8 -4,3 0,0" stroke-width="0.6"/>
    <line x1="0" y1="1" x2="0" y2="12" stroke-width="0.28"/>
    <path d="M0,5 Q3,8 4,11" stroke-width="0.24"/>
    <path d="M0,5 Q-3,8 -4,11" stroke-width="0.24"/>
  </g>
  <!-- x=556 above, vine y≈48 (large leaf) -->
  <g transform="translate(556,48) rotate(-15)">
    <path d="M0,0 C5,-3 9,-11 6,-19 C4,-24 -4,-24 -6,-19 C-9,-11 -5,-3 0,0" stroke-width="0.65"/>
    <line x1="0" y1="-1" x2="0" y2="-17" stroke-width="0.32"/>
    <path d="M0,-6 Q4,-11 6,-14" stroke-width="0.26"/>
    <path d="M0,-6 Q-4,-11 -6,-14" stroke-width="0.26"/>
    <path d="M0,-12 Q3,-14 4,-16" stroke-width="0.22"/>
    <path d="M0,-12 Q-3,-14 -4,-16" stroke-width="0.22"/>
  </g>
  <!-- x=572 below, vine y≈46 -->
  <g transform="translate(572,46) rotate(20)">
    <path d="M0,0 C3,2 5,7 4,12 C2,15 -2,15 -4,12 C-5,7 -3,2 0,0" stroke-width="0.58"/>
  </g>
  <!-- x=632 below, vine y≈68 -->
  <g transform="translate(632,68) rotate(16)">
    <path d="M0,0 C4,3 6,8 4,13 C3,16 -3,16 -4,13 C-6,8 -4,3 0,0" stroke-width="0.6"/>
    <line x1="0" y1="1" x2="0" y2="12" stroke-width="0.28"/>
  </g>
  <!-- x=650 above, vine y≈60 -->
  <g transform="translate(650,60) rotate(-18)">
    <path d="M0,0 C4,-3 7,-9 5,-15 C3,-19 -3,-19 -5,-15 C-7,-9 -4,-3 0,0" stroke-width="0.62"/>
    <line x1="0" y1="-1" x2="0" y2="-13" stroke-width="0.28"/>
    <path d="M0,-5 Q3,-9 5,-12" stroke-width="0.24"/>
    <path d="M0,-5 Q-3,-9 -5,-12" stroke-width="0.24"/>
  </g>
  <!-- x=706 above, vine y≈42 -->
  <g transform="translate(706,42) rotate(-22)">
    <path d="M0,0 C5,-3 9,-11 6,-19 C4,-24 -4,-24 -6,-19 C-9,-11 -5,-3 0,0" stroke-width="0.65"/>
    <line x1="0" y1="-1" x2="0" y2="-17" stroke-width="0.32"/>
    <path d="M0,-6 Q4,-11 6,-14" stroke-width="0.26"/>
    <path d="M0,-6 Q-4,-11 -6,-14" stroke-width="0.26"/>
  </g>
  <!-- x=720 below, vine y≈44 -->
  <g transform="translate(720,44) rotate(20)">
    <path d="M0,0 C3,2 5,7 4,12 C2,15 -2,15 -4,12 C-5,7 -3,2 0,0" stroke-width="0.6"/>
  </g>
  <!-- x=796 below, vine y≈68 -->
  <g transform="translate(796,68) rotate(24)">
    <path d="M0,0 C4,3 6,8 4,13 C3,16 -3,16 -4,13 C-6,8 -4,3 0,0" stroke-width="0.6"/>
    <line x1="0" y1="1" x2="0" y2="12" stroke-width="0.28"/>
  </g>

  <!-- Right section (x 800–1200) -->

  <!-- x=852 above, vine y≈48 -->
  <g transform="translate(852,48) rotate(-24)">
    <path d="M0,0 C5,-3 9,-11 6,-19 C4,-24 -4,-24 -6,-19 C-9,-11 -5,-3 0,0" stroke-width="0.65"/>
    <line x1="0" y1="-1" x2="0" y2="-17" stroke-width="0.32"/>
    <path d="M0,-6 Q4,-11 6,-14" stroke-width="0.26"/>
    <path d="M0,-6 Q-4,-11 -6,-14" stroke-width="0.26"/>
  </g>
  <!-- x=874 below, vine y≈44 -->
  <g transform="translate(874,44) rotate(20)">
    <path d="M0,0 C3,2 5,7 4,12 C2,15 -2,15 -4,12 C-5,7 -3,2 0,0" stroke-width="0.58"/>
  </g>
  <!-- x=935 above, vine y≈60 -->
  <g transform="translate(935,60) rotate(-18)">
    <path d="M0,0 C4,-3 7,-9 5,-15 C3,-19 -3,-19 -5,-15 C-7,-9 -4,-3 0,0" stroke-width="0.62"/>
    <line x1="0" y1="-1" x2="0" y2="-13" stroke-width="0.28"/>
    <path d="M0,-5 Q3,-9 5,-12" stroke-width="0.24"/>
    <path d="M0,-5 Q-3,-9 -5,-12" stroke-width="0.24"/>
  </g>
  <!-- x=952 below, vine y≈70 -->
  <g transform="translate(952,70) rotate(22)">
    <path d="M0,0 C4,3 6,8 4,13 C3,16 -3,16 -4,13 C-6,8 -4,3 0,0" stroke-width="0.6"/>
    <line x1="0" y1="1" x2="0" y2="12" stroke-width="0.28"/>
    <path d="M0,5 Q3,8 4,11" stroke-width="0.24"/>
    <path d="M0,5 Q-3,8 -4,11" stroke-width="0.24"/>
  </g>
  <!-- x=1018 above, vine y≈50 (large leaf near Rose 3) -->
  <g transform="translate(1018,50) rotate(-15)">
    <path d="M0,0 C5,-3 9,-11 6,-19 C4,-24 -4,-24 -6,-19 C-9,-11 -5,-3 0,0" stroke-width="0.65"/>
    <line x1="0" y1="-1" x2="0" y2="-17" stroke-width="0.32"/>
    <path d="M0,-6 Q4,-11 6,-14" stroke-width="0.26"/>
    <path d="M0,-6 Q-4,-11 -6,-14" stroke-width="0.26"/>
    <path d="M0,-12 Q3,-14 4,-16" stroke-width="0.22"/>
    <path d="M0,-12 Q-3,-14 -4,-16" stroke-width="0.22"/>
  </g>
  <!-- x=1098 above, vine y≈58 -->
  <g transform="translate(1098,58) rotate(-20)">
    <path d="M0,0 C4,-3 7,-9 5,-15 C3,-19 -3,-19 -5,-15 C-7,-9 -4,-3 0,0" stroke-width="0.62"/>
    <line x1="0" y1="-1" x2="0" y2="-13" stroke-width="0.28"/>
    <path d="M0,-5 Q3,-9 5,-12" stroke-width="0.24"/>
    <path d="M0,-5 Q-3,-9 -5,-12" stroke-width="0.24"/>
  </g>
  <!-- x=1118 below, vine y≈60 -->
  <g transform="translate(1118,60) rotate(18)">
    <path d="M0,0 C3,2 5,7 4,12 C2,15 -2,15 -4,12 C-5,7 -3,2 0,0" stroke-width="0.6"/>
  </g>
  <!-- x=1162 above, vine y≈50 -->
  <g transform="translate(1162,50) rotate(-25)">
    <path d="M0,0 C4,-3 7,-9 5,-15 C3,-19 -3,-19 -5,-15 C-7,-9 -4,-3 0,0" stroke-width="0.62"/>
    <line x1="0" y1="-1" x2="0" y2="-13" stroke-width="0.28"/>
  </g>
  <!-- x=1182 below, vine y≈52 -->
  <g transform="translate(1182,52) rotate(16)">
    <path d="M0,0 C3,2 5,7 4,12 C2,15 -2,15 -4,12 C-5,7 -3,2 0,0" stroke-width="0.58"/>
  </g>

</svg>
